<svg width="1001" height="561" viewBox="0 0 1001 561" fill="none" xmlns="http://www.w3.org/2000/svg">
<g filter="url(#filter0_d_18_414)">
<ellipse cx="31.936" cy="241.88" rx="30.936" ry="30.8797" fill="#25A56A"/>
<ellipse cx="31.936" cy="241.88" rx="30.936" ry="30.8797" fill="url(#paint0_linear_18_414)"/>
<path d="M32.3626 235.982V240.384H39.4616V244.476H32.3626V249.25H40.3916V253.497H27.0616V231.735H40.3916V235.982H32.3626Z" fill="#FCFFFE"/>
<ellipse cx="160.936" cy="168.88" rx="30.936" ry="30.8797" fill="white"/>
<path d="M165.895 176.653H157.773L156.471 180.497H150.922L158.796 158.735H164.934L172.808 180.497H167.197L165.895 176.653ZM164.531 172.561L161.834 164.594L159.168 172.561H164.531Z" fill="#25A56A"/>
<ellipse cx="289.936" cy="95.084" rx="30.936" ry="30.8797" fill="white"/>
<path d="M289.501 84.9397C291.795 84.9397 293.799 85.3944 295.515 86.3037C297.23 87.2131 298.553 88.4944 299.483 90.1477C300.433 91.7804 300.909 93.6714 300.909 95.8207C300.909 97.9494 300.433 99.8404 299.483 101.494C298.553 103.147 297.22 104.428 295.484 105.338C293.768 106.247 291.774 106.702 289.501 106.702H281.348V84.9397H289.501ZM289.16 102.114C291.164 102.114 292.725 101.566 293.841 100.471C294.957 99.3754 295.515 97.8254 295.515 95.8207C295.515 93.8161 294.957 92.2557 293.841 91.1397C292.725 90.0237 291.164 89.4657 289.16 89.4657H286.649V102.114H289.16Z" fill="#25A56A"/>
<ellipse cx="954.936" cy="241.88" rx="30.936" ry="30.8797" fill="white"/>
<path d="M955.363 235.982V240.384H962.462V244.476H955.363V249.25H963.392V253.497H950.062V231.735H963.392V235.982H955.363Z" fill="#25A56A"/>
<ellipse cx="825.936" cy="168.88" rx="30.936" ry="30.8797" fill="white"/>
<path d="M836.196 158.735V180.497H830.895V171.538H822.649V180.497H817.348V158.735H822.649V167.26H830.895V158.735H836.196Z" fill="#25A56A"/>
<ellipse cx="696.936" cy="95.084" rx="30.936" ry="30.8797" fill="white"/>
<path d="M702.794 91.8217C702.401 91.0984 701.833 90.5507 701.089 90.1787C700.365 89.7861 699.508 89.5897 698.516 89.5897C696.8 89.5897 695.426 90.1581 694.393 91.2947C693.359 92.4107 692.843 93.9091 692.843 95.7897C692.843 97.7944 693.38 99.3651 694.455 100.502C695.55 101.618 697.048 102.176 698.95 102.176C700.252 102.176 701.347 101.845 702.236 101.184C703.145 100.522 703.806 99.5717 704.22 98.3317H697.493V94.4257H709.025V99.3547C708.632 100.677 707.96 101.907 707.01 103.044C706.08 104.18 704.891 105.1 703.445 105.803C701.998 106.505 700.365 106.857 698.547 106.857C696.397 106.857 694.475 106.392 692.781 105.462C691.107 104.511 689.794 103.199 688.844 101.525C687.914 99.8507 687.449 97.9391 687.449 95.7897C687.449 93.6404 687.914 91.7287 688.844 90.0547C689.794 88.3601 691.107 87.0477 692.781 86.1177C694.455 85.1671 696.366 84.6917 698.516 84.6917C701.12 84.6917 703.31 85.3221 705.088 86.5827C706.886 87.8434 708.074 89.5897 708.653 91.8217H702.794Z" fill="#25A56A"/>
<path d="M336 98.9998H353" stroke="black" stroke-opacity="0.4"/>
<path d="M207.5 170.5L353 170.5" stroke="black" stroke-opacity="0.4"/>
<path d="M77 242H353" stroke="black" stroke-opacity="0.4"/>
<path d="M633 98.9998H650" stroke="black" stroke-opacity="0.4"/>
<path d="M633 170.5L778.5 170.5" stroke="black" stroke-opacity="0.4"/>
<path d="M633 242H909" stroke="black" stroke-opacity="0.4"/>
</g>
<defs>
<filter id="filter0_d_18_414" x="0" y="-0.00012207" width="1000.87" height="561" filterUnits="userSpaceOnUse" color-interpolation-filters="sRGB">
<feFlood flood-opacity="0" result="BackgroundImageFix"/>
<feColorMatrix in="SourceAlpha" type="matrix" values="0 0 0 0 0 0 0 0 0 0 0 0 0 0 0 0 0 0 127 0" result="hardAlpha"/>
<feOffset dx="7" dy="4"/>
<feGaussianBlur stdDeviation="4"/>
<feComposite in2="hardAlpha" operator="out"/>
<feColorMatrix type="matrix" values="0 0 0 0 0 0 0 0 0 0 0 0 0 0 0 0 0 0 0.25 0"/>
<feBlend mode="normal" in2="BackgroundImageFix" result="effect1_dropShadow_18_414"/>
<feBlend mode="normal" in="SourceGraphic" in2="effect1_dropShadow_18_414" result="shape"/>
</filter>
<linearGradient id="paint0_linear_18_414" x1="31.936" y1="211" x2="31.936" y2="272.759" gradientUnits="userSpaceOnUse">
<stop stop-color="#33B478"/>
<stop offset="1" stop-color="#222222"/>
</linearGradient>
</defs>
</svg>
