<svg width="332" height="520" viewBox="0 0 332 520" fill="none" xmlns="http://www.w3.org/2000/svg">
<g clip-path="url(#clip0_32_2)">
<g filter="url(#filter0_d_32_2)">
<path d="M90.79 237.809H105.756V222.982H90.79V237.809Z" fill="url(#paint0_linear_32_2)"/>
<path d="M59.8311 230.175C59.8311 238.836 63.6459 245.002 68.0477 248.818H84.0407L91.377 237.809V222.982L84.0407 211.973H68.1944C63.7926 215.789 59.9778 221.661 59.9778 230.322H59.8311V230.175Z" fill="url(#paint1_linear_32_2)"/>
<path d="M84.7734 158.833H99.7394V144.006H84.7734V158.833Z" fill="url(#paint2_linear_32_2)"/>
<path d="M53.8145 151.199C53.8145 159.86 57.6293 166.026 62.0311 169.842H78.1709L85.5071 158.833V144.006L78.1709 132.997H62.1778C57.776 136.813 53.9612 142.685 53.9612 151.346H53.8145V151.199Z" fill="url(#paint3_linear_32_2)"/>
<path d="M80.959 81.7651H95.925V66.9387H80.959V81.7651Z" fill="url(#paint4_linear_32_2)"/>
<path d="M50 73.9849C50 82.6459 53.8149 88.8113 58.2166 92.628H74.3564L81.6927 81.6183V66.792L74.3564 55.7823H58.2166C53.8149 59.599 50 65.4708 50 74.1317V73.9849Z" fill="url(#paint5_linear_32_2)"/>
<path d="M242.21 237.809H227.244V222.982H242.21V237.809Z" fill="url(#paint6_linear_32_2)"/>
<path d="M273.169 230.175C273.169 238.836 269.354 245.002 264.952 248.818H248.959L241.623 237.809V222.982L248.959 211.973H264.952C269.354 215.789 273.169 221.661 273.169 230.322V230.175Z" fill="url(#paint7_linear_32_2)"/>
<path d="M248.226 158.833H233.26V144.006H248.226V158.833Z" fill="url(#paint8_linear_32_2)"/>
<path d="M279.185 151.199C279.185 159.86 275.37 166.026 270.968 169.842H254.975L247.639 158.833V144.006L254.975 132.997H270.968C275.37 136.813 279.185 142.685 279.185 151.346V151.199Z" fill="url(#paint9_linear_32_2)"/>
<path d="M252.188 81.7651H237.222V66.9387H252.188V81.7651Z" fill="url(#paint10_linear_32_2)"/>
<path d="M283 73.9849C283 82.6459 279.185 88.8113 274.783 92.628H258.79L251.454 81.6183V66.792L258.79 55.7823H274.783C279.185 59.599 283 65.4708 283 74.1317V73.9849Z" fill="url(#paint11_linear_32_2)"/>
<path d="M118.374 313.262L112.799 622.706H220.348L214.626 313.262C214.626 313.262 222.109 296.527 232.527 267.461C233.26 254.837 244.998 55.0483 248.08 8.22055C246.906 4.55066 243.531 1.61475 239.863 0C219.762 0.293591 166.5 0 166.5 0C166.5 0 113.386 0.293591 93.1375 0C89.4694 1.61475 86.2414 4.55066 84.9209 8.22055C88.0021 55.0483 99.7402 254.837 100.474 267.461C110.891 296.527 118.374 313.262 118.374 313.262Z" fill="#DFDFDF"/>
<path d="M84.9209 8.22055C88.0021 55.0483 99.7402 254.837 100.474 267.461C107.663 287.572 115.44 306.509 118.374 313.262H214.626C217.561 306.362 225.337 287.426 232.527 267.461C233.26 254.837 244.998 55.1951 248.08 8.22055C246.759 4.55066 243.384 1.46795 239.863 0C219.615 0.293591 166.5 0 166.5 0C166.5 0 113.386 0.293591 93.1375 0C89.4694 1.61475 86.2414 4.55066 84.9209 8.22055Z" fill="url(#paint12_linear_32_2)"/>
<path d="M220.348 622.706L214.773 313.262H118.374L112.945 622.706H220.348Z" fill="url(#paint13_linear_32_2)"/>
<path d="M126.591 209.624C134.514 209.624 140.823 216.083 140.823 223.863C140.823 231.643 134.367 238.102 126.591 238.102C118.814 238.102 112.358 231.643 112.358 223.863C112.358 216.083 118.814 209.624 126.591 209.624Z" fill="url(#paint14_radial_32_2)"/>
<path d="M129.525 133.731C137.449 133.731 143.758 140.19 143.758 147.97C143.758 155.75 137.302 162.209 129.525 162.209C121.749 162.209 115.293 155.75 115.293 147.97C115.293 140.19 121.749 133.731 129.525 133.731Z" fill="url(#paint15_radial_32_2)"/>
<path d="M129.525 133.731C137.449 133.731 143.758 140.19 143.758 147.97C143.758 155.75 137.302 162.209 129.525 162.209C121.749 162.209 115.293 155.75 115.293 147.97C115.293 140.19 121.749 133.731 129.525 133.731Z" fill="url(#paint16_radial_32_2)"/>
<path d="M126.591 55.9291C134.514 55.9291 140.823 62.3881 140.823 70.1682C140.823 77.9484 134.367 84.4074 126.591 84.4074C118.814 84.4074 112.358 77.9484 112.358 70.1682C112.358 62.3881 118.814 55.9291 126.591 55.9291Z" fill="url(#paint17_radial_32_2)"/>
<path d="M126.591 55.9291C134.514 55.9291 140.823 62.3881 140.823 70.1682C140.823 77.9484 134.367 84.4074 126.591 84.4074C118.814 84.4074 112.358 77.9484 112.358 70.1682C112.358 62.3881 118.814 55.9291 126.591 55.9291Z" fill="url(#paint18_radial_32_2)"/>
<path d="M206.556 209.624C198.632 209.624 192.323 216.083 192.323 223.863C192.323 231.643 198.779 238.102 206.556 238.102C214.332 238.102 220.788 231.643 220.788 223.863C220.788 216.083 214.332 209.624 206.556 209.624Z" fill="url(#paint19_radial_32_2)"/>
<path d="M206.556 209.624C198.632 209.624 192.323 216.083 192.323 223.863C192.323 231.643 198.779 238.102 206.556 238.102C214.332 238.102 220.788 231.643 220.788 223.863C220.788 216.083 214.332 209.624 206.556 209.624Z" fill="url(#paint20_radial_32_2)"/>
<path d="M203.621 133.731C195.698 133.731 189.389 140.19 189.389 147.97C189.389 155.75 195.845 162.209 203.621 162.209C211.397 162.209 217.853 155.75 217.853 147.97C217.853 140.19 211.397 133.731 203.621 133.731Z" fill="url(#paint21_radial_32_2)"/>
<path d="M203.621 133.731C195.698 133.731 189.389 140.19 189.389 147.97C189.389 155.75 195.845 162.209 203.621 162.209C211.397 162.209 217.853 155.75 217.853 147.97C217.853 140.19 211.397 133.731 203.621 133.731Z" fill="url(#paint22_radial_32_2)"/>
<path d="M206.556 55.9291C198.632 55.9291 192.323 62.3881 192.323 70.1682C192.323 77.9484 198.779 84.4074 206.556 84.4074C214.332 84.4074 220.788 77.9484 220.788 70.1682C220.788 62.3881 214.332 55.9291 206.556 55.9291Z" fill="url(#paint23_radial_32_2)"/>
<path d="M206.556 55.9291C198.632 55.9291 192.323 62.3881 192.323 70.1682C192.323 77.9484 198.779 84.4074 206.556 84.4074C214.332 84.4074 220.788 77.9484 220.788 70.1682C220.788 62.3881 214.332 55.9291 206.556 55.9291Z" fill="url(#paint24_radial_32_2)"/>
<mask id="mask0_32_2" style="mask-type:luminance" maskUnits="userSpaceOnUse" x="84" y="1" width="165" height="622">
<path d="M84.9209 9.98208C88.0021 56.8098 99.7402 256.598 100.474 269.223C110.891 298.288 118.374 315.023 118.374 315.023L101.354 622.413L166.5 622.853L232.087 622.413L214.626 315.023C214.626 315.023 222.109 298.288 232.527 269.223C233.26 256.598 244.998 56.9566 248.08 9.98208C246.759 6.3122 243.384 3.22949 239.863 1.76154C219.762 2.05513 166.5 1.76154 166.5 1.76154C166.5 1.76154 113.386 2.05513 93.1375 1.76154C89.4694 3.37629 86.2414 6.3122 84.9209 9.98208Z" fill="white"/>
</mask>
<g mask="url(#mask0_32_2)">
<path d="M101.501 463.287H231.646V458.295H101.501V463.287Z" fill="url(#paint25_linear_32_2)"/>
<path d="M101.501 392.531H231.646V387.54H101.501V392.531Z" fill="url(#paint26_linear_32_2)"/>
</g>
<path d="M113.532 301.518C118.374 313.262 118.227 313.262 118.227 313.262H214.626C214.626 313.262 214.626 313.262 219.615 301.518H113.532Z" fill="#DFDFDF"/>
<path d="M126.298 622.706L130.406 310.472H127.618C127.618 310.472 124.977 513.491 123.51 622.706H126.298Z" fill="#978B6A"/>
<path d="M143.171 622.706L145.518 310.472H142.73C142.73 310.472 141.263 513.491 140.383 622.706H143.171Z" fill="#978B6A"/>
<path d="M159.751 622.706L160.191 310.472H157.844C157.844 310.472 157.55 513.491 157.257 622.706H159.604H159.751Z" fill="#978B6A"/>
<path d="M176.624 622.706L175.304 310.472H172.956L174.277 622.706H176.624Z" fill="#978B6A"/>
<path d="M193.498 622.706L190.417 310.472H188.069L191.297 622.706H193.498Z" fill="#978B6A"/>
<path d="M209.931 622.706L205.089 310.472H203.182L208.17 622.706H209.931Z" fill="#978B6A"/>
<path d="M127.618 310.472H130.406L133.634 221.074H130.406L127.618 310.472Z" fill="#978B6A"/>
<path d="M133.047 143.86L142.731 310.326H145.519L135.394 143.86H133.047Z" fill="#978B6A"/>
<path d="M129.819 65.9112L157.844 310.472H160.192L132.167 65.9112H129.819Z" fill="#978B6A"/>
<path d="M172.956 310.472H175.304L202.301 66.4984L199.954 66.058L172.956 310.619V310.472Z" fill="#978B6A"/>
<path d="M188.069 310.472H190.417L199.074 144.447H197.313L188.216 310.472H188.069Z" fill="#978B6A"/>
<path d="M199.073 222.395L203.182 310.472H204.942L200.834 222.395H199.073Z" fill="#978B6A"/>
<path d="M126.591 215.055C131.433 215.055 135.541 219.019 135.541 224.01C135.541 229.001 131.58 232.964 126.591 232.964C121.602 232.964 117.641 229.001 117.641 224.01C117.641 219.019 121.602 215.055 126.591 215.055Z" fill="url(#paint27_radial_32_2)"/>
<path d="M206.95 215C211.792 215 215.901 218.963 215.901 223.955C215.901 228.946 211.939 232.909 206.95 232.909C201.962 232.909 198 228.946 198 223.955C198 218.963 201.962 215 206.95 215Z" fill="url(#paint28_radial_32_2)"/>
<path d="M203.95 139C208.792 139 212.901 142.963 212.901 147.955C212.901 152.946 208.939 156.909 203.95 156.909C198.962 156.909 195 152.946 195 147.955C195 142.963 198.962 139 203.95 139Z" fill="url(#paint29_radial_32_2)"/>
<path d="M206.95 61C211.792 61 215.901 64.9635 215.901 69.9545C215.901 74.9456 211.939 78.9091 206.95 78.9091C201.962 78.9091 198 74.9456 198 69.9545C198 64.9635 201.962 61 206.95 61Z" fill="url(#paint30_radial_32_2)"/>
<path d="M126.95 61C131.792 61 135.901 64.9635 135.901 69.9545C135.901 74.9456 131.939 78.9091 126.95 78.9091C121.962 78.9091 118 74.9456 118 69.9545C118 64.9635 121.962 61 126.95 61Z" fill="url(#paint31_radial_32_2)"/>
<path d="M129.95 139C134.792 139 138.901 142.963 138.901 147.955C138.901 152.946 134.939 156.909 129.95 156.909C124.962 156.909 121 152.946 121 147.955C121 142.963 124.962 139 129.95 139Z" fill="url(#paint32_radial_32_2)"/>
</g>
<g style="mix-blend-mode:luminosity">
<path d="M183.706 27.5142C184.591 21.0212 183.458 19.5763 180.565 17.5269C176.322 14.4892 169.84 14.0637 167.707 14.0079C167.703 14.0052 167.698 14.0034 167.694 14.0008H167.315C167.111 13.999 167 14.0008 167 14.0008V20.2837C167.754 20.2837 168.452 20.274 169.151 20.2855C172.499 20.3387 175.132 23.1557 174.8 26.306C174.706 27.2075 174.329 28.0141 173.945 28.8199C172.895 31.0209 173.125 33.0649 174.755 34.945C175.052 35.2872 175.345 35.6338 175.646 35.9724C176.601 37.044 177.406 38.1911 177.726 39.5898C177.907 40.3796 177.931 41.1801 177.943 42C179.26 40.2476 180.905 36.6992 181.149 36.1408C182.254 33.6127 183.289 30.5688 183.706 27.5142Z" fill="#20EB8D"/>
</g>
<g style="mix-blend-mode:luminosity">
<path d="M170.898 28.23C170.602 26.8986 169.814 25.9431 168.528 25.3182V27.3037C169.554 28.5349 169.555 29.8955 168.535 30.8803C167.627 31.756 166.165 31.7932 165.217 30.9636C164.298 30.1614 163.916 28.651 165.133 27.2833V15.9517C165.133 15.9517 165.131 15.9517 165.131 15.9517V14.0008C165.131 14.0008 165.025 13.999 164.832 14.0008H164.472C164.472 14.0008 164.463 14.0052 164.459 14.0079C162.437 14.0637 156.285 14.4892 152.259 17.5268C149.515 19.5771 148.439 21.0219 149.279 27.5147C149.675 30.5683 150.657 33.6121 151.705 36.141C151.936 36.6994 153.498 40.2476 154.747 42C154.759 41.181 154.782 40.3797 154.953 39.5899C155.257 38.1912 156.021 37.0442 156.926 35.9726C157.004 35.8813 157.079 35.7882 157.156 35.696C157.159 35.7013 157.163 35.7058 157.167 35.7111C157.395 35.431 157.62 35.1491 157.839 34.8628C157.968 34.7024 158.087 34.5402 158.196 34.3771C158.201 34.37 158.207 34.3629 158.212 34.3549C159.25 32.8738 159.437 31.2517 158.836 29.5498C158.635 28.9807 158.373 28.433 158.151 27.8701C156.892 24.6826 158.639 21.2541 161.942 20.4386C162.067 20.4076 162.192 20.3792 162.318 20.3544C162.571 20.3136 162.828 20.2888 163.091 20.2844C163.143 20.2844 163.194 20.2835 163.247 20.2826C163.37 20.2906 163.496 20.3066 163.622 20.3331C163.622 22.3364 163.62 24.3148 163.625 26.2923C163.625 26.4767 163.515 26.5902 163.424 26.7213C162.328 28.3044 162.43 30.3759 163.675 31.8127C164.928 33.2584 166.962 33.6671 168.688 32.8197C170.393 31.9838 171.316 30.0949 170.901 28.2282L170.898 28.23Z" fill="#20EB8D"/>
</g>
<g style="mix-blend-mode:luminosity">
<path d="M170.044 50.6636H161.957C161.957 50.6636 160.377 50.7657 159 50C159 50 161.795 53.1378 163.232 54.5944C164.571 55.9523 165.304 56.0315 166 55.9932C166.696 56.0315 167.429 55.9523 168.768 54.5944C170.205 53.1378 173 50 173 50C171.623 50.7657 170.043 50.6636 170.043 50.6636H170.044Z" fill="#20EB8D"/>
</g>
<g style="mix-blend-mode:luminosity">
<path d="M169.487 41H162.513C162.23 41 162 41.1281 162 41.2862V41.7138C162 41.8719 162.23 42 162.513 42H169.487C169.77 42 170 41.8719 170 41.7138V41.2862C170 41.1281 169.77 41 169.487 41Z" fill="#20EB8D"/>
</g>
</g>
<defs>
<filter id="filter0_d_32_2" x="35" y="0" width="265" height="663.706" filterUnits="userSpaceOnUse" color-interpolation-filters="sRGB">
<feFlood flood-opacity="0" result="BackgroundImageFix"/>
<feColorMatrix in="SourceAlpha" type="matrix" values="0 0 0 0 0 0 0 0 0 0 0 0 0 0 0 0 0 0 127 0" result="hardAlpha"/>
<feOffset dx="1" dy="25"/>
<feGaussianBlur stdDeviation="8"/>
<feComposite in2="hardAlpha" operator="out"/>
<feColorMatrix type="matrix" values="0 0 0 0 0 0 0 0 0 0 0 0 0 0 0 0 0 0 0.25 0"/>
<feBlend mode="normal" in2="BackgroundImageFix" result="effect1_dropShadow_32_2"/>
<feBlend mode="normal" in="SourceGraphic" in2="effect1_dropShadow_32_2" result="shape"/>
</filter>
<linearGradient id="paint0_linear_32_2" x1="98.273" y1="237.955" x2="98.273" y2="223.129" gradientUnits="userSpaceOnUse">
<stop stop-color="#CDCDCD"/>
<stop offset="0.58" stop-color="#ADADAD"/>
<stop offset="1" stop-color="#E7E7E7"/>
</linearGradient>
<linearGradient id="paint1_linear_32_2" x1="75.6774" y1="249.112" x2="75.6774" y2="212.119" gradientUnits="userSpaceOnUse">
<stop stop-color="#949494"/>
<stop offset="0.39" stop-color="#D9D9D9"/>
<stop offset="0.75" stop-color="#C4C4C4"/>
<stop offset="1" stop-color="#A5A5A5"/>
</linearGradient>
<linearGradient id="paint2_linear_32_2" x1="92.2564" y1="158.979" x2="92.2564" y2="144.153" gradientUnits="userSpaceOnUse">
<stop stop-color="#CDCDCD"/>
<stop offset="0.58" stop-color="#ADADAD"/>
<stop offset="1" stop-color="#E7E7E7"/>
</linearGradient>
<linearGradient id="paint3_linear_32_2" x1="69.6608" y1="170.136" x2="69.6608" y2="133.143" gradientUnits="userSpaceOnUse">
<stop stop-color="#949494"/>
<stop offset="0.39" stop-color="#D9D9D9"/>
<stop offset="0.75" stop-color="#C4C4C4"/>
<stop offset="1" stop-color="#A5A5A5"/>
</linearGradient>
<linearGradient id="paint4_linear_32_2" x1="88.442" y1="81.9119" x2="88.442" y2="66.9387" gradientUnits="userSpaceOnUse">
<stop stop-color="#CDCDCD"/>
<stop offset="0.58" stop-color="#ADADAD"/>
<stop offset="1" stop-color="#E7E7E7"/>
</linearGradient>
<linearGradient id="paint5_linear_32_2" x1="65.8463" y1="92.9215" x2="65.8463" y2="55.9291" gradientUnits="userSpaceOnUse">
<stop stop-color="#949494"/>
<stop offset="0.39" stop-color="#D9D9D9"/>
<stop offset="0.75" stop-color="#C4C4C4"/>
<stop offset="1" stop-color="#A5A5A5"/>
</linearGradient>
<linearGradient id="paint6_linear_32_2" x1="234.727" y1="1255.84" x2="234.727" y2="1241.16" gradientUnits="userSpaceOnUse">
<stop stop-color="#CDCDCD"/>
<stop offset="0.58" stop-color="#ADADAD"/>
<stop offset="1" stop-color="#E7E7E7"/>
</linearGradient>
<linearGradient id="paint7_linear_32_2" x1="257.323" y1="1255.84" x2="257.323" y2="1241.16" gradientUnits="userSpaceOnUse">
<stop stop-color="#949494"/>
<stop offset="0.39" stop-color="#D9D9D9"/>
<stop offset="0.75" stop-color="#C4C4C4"/>
<stop offset="1" stop-color="#A5A5A5"/>
</linearGradient>
<linearGradient id="paint8_linear_32_2" x1="240.743" y1="158.98" x2="240.743" y2="144.153" gradientUnits="userSpaceOnUse">
<stop stop-color="#CDCDCD"/>
<stop offset="0.58" stop-color="#ADADAD"/>
<stop offset="1" stop-color="#E7E7E7"/>
</linearGradient>
<linearGradient id="paint9_linear_32_2" x1="263.338" y1="170.136" x2="263.338" y2="133.143" gradientUnits="userSpaceOnUse">
<stop stop-color="#949494"/>
<stop offset="0.39" stop-color="#D9D9D9"/>
<stop offset="0.75" stop-color="#C4C4C4"/>
<stop offset="1" stop-color="#A5A5A5"/>
</linearGradient>
<linearGradient id="paint10_linear_32_2" x1="244.558" y1="81.9119" x2="244.558" y2="66.9387" gradientUnits="userSpaceOnUse">
<stop stop-color="#CDCDCD"/>
<stop offset="0.58" stop-color="#ADADAD"/>
<stop offset="1" stop-color="#E7E7E7"/>
</linearGradient>
<linearGradient id="paint11_linear_32_2" x1="267.154" y1="92.9215" x2="267.154" y2="55.9291" gradientUnits="userSpaceOnUse">
<stop stop-color="#949494"/>
<stop offset="0.39" stop-color="#D9D9D9"/>
<stop offset="0.75" stop-color="#C4C4C4"/>
<stop offset="1" stop-color="#A5A5A5"/>
</linearGradient>
<linearGradient id="paint12_linear_32_2" x1="82.5733" y1="156.778" x2="255.856" y2="156.778" gradientUnits="userSpaceOnUse">
<stop stop-color="#776965"/>
<stop offset="1" stop-color="#5D524F"/>
</linearGradient>
<linearGradient id="paint13_linear_32_2" x1="110.158" y1="466.749" x2="223.283" y2="466.749" gradientUnits="userSpaceOnUse">
<stop stop-color="#5B6768"/>
<stop offset="1" stop-color="#3E4647"/>
</linearGradient>
<radialGradient id="paint14_radial_32_2" cx="0" cy="0" r="1" gradientUnits="userSpaceOnUse" gradientTransform="translate(126.591 224.157) rotate(-90) scale(14.2392 14.2324)">
<stop stop-color="#9D9D9D"/>
<stop offset="0.86" stop-color="#D4D4D4"/>
<stop offset="0.93" stop-color="#D4D4D4"/>
<stop offset="1" stop-color="#8E8E8E"/>
</radialGradient>
<radialGradient id="paint15_radial_32_2" cx="0" cy="0" r="1" gradientUnits="userSpaceOnUse" gradientTransform="translate(1200.33 1172.6) rotate(-90) scale(7.33978 7.33627)">
<stop stop-color="#9D9D9D"/>
<stop offset="0.86" stop-color="#D4D4D4"/>
<stop offset="0.93" stop-color="#D4D4D4"/>
<stop offset="1" stop-color="#8E8E8E"/>
</radialGradient>
<radialGradient id="paint16_radial_32_2" cx="0" cy="0" r="1" gradientUnits="userSpaceOnUse" gradientTransform="translate(129.525 148.263) rotate(-90) scale(14.2392 14.2324)">
<stop stop-color="#9D9D9D"/>
<stop offset="0.86" stop-color="#D4D4D4"/>
<stop offset="0.93" stop-color="#D4D4D4"/>
<stop offset="1" stop-color="#8E8E8E"/>
</radialGradient>
<radialGradient id="paint17_radial_32_2" cx="0" cy="0" r="1" gradientUnits="userSpaceOnUse" gradientTransform="translate(1197.39 1094.65) rotate(-90) scale(7.33977 7.33627)">
<stop stop-color="#9D9D9D"/>
<stop offset="0.86" stop-color="#D4D4D4"/>
<stop offset="0.93" stop-color="#D4D4D4"/>
<stop offset="1" stop-color="#8E8E8E"/>
</radialGradient>
<radialGradient id="paint18_radial_32_2" cx="0" cy="0" r="1" gradientUnits="userSpaceOnUse" gradientTransform="translate(126.591 70.4618) rotate(-90) scale(14.2392 14.2324)">
<stop stop-color="#9D9D9D"/>
<stop offset="0.86" stop-color="#D4D4D4"/>
<stop offset="0.93" stop-color="#D4D4D4"/>
<stop offset="1" stop-color="#8E8E8E"/>
</radialGradient>
<radialGradient id="paint19_radial_32_2" cx="0" cy="0" r="1" gradientUnits="userSpaceOnUse" gradientTransform="translate(206.556 1248.5) rotate(-90) scale(7.33977 7.33627)">
<stop stop-color="#9D9D9D"/>
<stop offset="0.86" stop-color="#D4D4D4"/>
<stop offset="0.93" stop-color="#D4D4D4"/>
<stop offset="1" stop-color="#8E8E8E"/>
</radialGradient>
<radialGradient id="paint20_radial_32_2" cx="0" cy="0" r="1" gradientUnits="userSpaceOnUse" gradientTransform="translate(206.556 224.157) rotate(-90) scale(14.2392 14.2324)">
<stop stop-color="#9D9D9D"/>
<stop offset="0.86" stop-color="#D4D4D4"/>
<stop offset="0.93" stop-color="#D4D4D4"/>
<stop offset="1" stop-color="#8E8E8E"/>
</radialGradient>
<radialGradient id="paint21_radial_32_2" cx="0" cy="0" r="1" gradientUnits="userSpaceOnUse" gradientTransform="translate(203.621 1172.6) rotate(-90) scale(7.33978 7.33627)">
<stop stop-color="#9D9D9D"/>
<stop offset="0.86" stop-color="#D4D4D4"/>
<stop offset="0.93" stop-color="#D4D4D4"/>
<stop offset="1" stop-color="#8E8E8E"/>
</radialGradient>
<radialGradient id="paint22_radial_32_2" cx="0" cy="0" r="1" gradientUnits="userSpaceOnUse" gradientTransform="translate(203.621 148.263) rotate(-90) scale(14.2392 14.2324)">
<stop stop-color="#9D9D9D"/>
<stop offset="0.86" stop-color="#D4D4D4"/>
<stop offset="0.93" stop-color="#D4D4D4"/>
<stop offset="1" stop-color="#8E8E8E"/>
</radialGradient>
<radialGradient id="paint23_radial_32_2" cx="0" cy="0" r="1" gradientUnits="userSpaceOnUse" gradientTransform="translate(206.556 1094.65) rotate(-90) scale(7.33977 7.33627)">
<stop stop-color="#9D9D9D"/>
<stop offset="0.86" stop-color="#D4D4D4"/>
<stop offset="0.93" stop-color="#D4D4D4"/>
<stop offset="1" stop-color="#8E8E8E"/>
</radialGradient>
<radialGradient id="paint24_radial_32_2" cx="0" cy="0" r="1" gradientUnits="userSpaceOnUse" gradientTransform="translate(206.556 70.4618) rotate(-90) scale(14.2392 14.2324)">
<stop stop-color="#9D9D9D"/>
<stop offset="0.86" stop-color="#D4D4D4"/>
<stop offset="0.93" stop-color="#D4D4D4"/>
<stop offset="1" stop-color="#8E8E8E"/>
</radialGradient>
<linearGradient id="paint25_linear_32_2" x1="1197.98" y1="463.433" x2="1197.98" y2="458.295" gradientUnits="userSpaceOnUse">
<stop stop-color="#606060"/>
<stop offset="1" stop-color="#B8B8B8"/>
</linearGradient>
<linearGradient id="paint26_linear_32_2" x1="1197.98" y1="392.678" x2="1197.98" y2="387.687" gradientUnits="userSpaceOnUse">
<stop stop-color="#606060"/>
<stop offset="1" stop-color="#B8B8B8"/>
</linearGradient>
<radialGradient id="paint27_radial_32_2" cx="0" cy="0" r="1" gradientUnits="userSpaceOnUse" gradientTransform="translate(120.643 234.934) rotate(-90) scale(8.82828 8.82407)">
<stop stop-color="white"/>
<stop offset="0.76" stop-color="#D0D0D0"/>
<stop offset="1" stop-color="#A6A6A6"/>
</radialGradient>
<radialGradient id="paint28_radial_32_2" cx="0" cy="0" r="1" gradientUnits="userSpaceOnUse" gradientTransform="translate(201.002 234.879) rotate(-90) scale(8.82828 8.82407)">
<stop stop-color="white"/>
<stop offset="0.76" stop-color="#D0D0D0"/>
<stop offset="1" stop-color="#A6A6A6"/>
</radialGradient>
<radialGradient id="paint29_radial_32_2" cx="0" cy="0" r="1" gradientUnits="userSpaceOnUse" gradientTransform="translate(198.002 158.879) rotate(-90) scale(8.82828 8.82407)">
<stop stop-color="white"/>
<stop offset="0.76" stop-color="#D0D0D0"/>
<stop offset="1" stop-color="#A6A6A6"/>
</radialGradient>
<radialGradient id="paint30_radial_32_2" cx="0" cy="0" r="1" gradientUnits="userSpaceOnUse" gradientTransform="translate(201.002 80.879) rotate(-90) scale(8.82828 8.82407)">
<stop stop-color="white"/>
<stop offset="0.76" stop-color="#D0D0D0"/>
<stop offset="1" stop-color="#A6A6A6"/>
</radialGradient>
<radialGradient id="paint31_radial_32_2" cx="0" cy="0" r="1" gradientUnits="userSpaceOnUse" gradientTransform="translate(121.002 80.879) rotate(-90) scale(8.82828 8.82407)">
<stop stop-color="white"/>
<stop offset="0.76" stop-color="#D0D0D0"/>
<stop offset="1" stop-color="#A6A6A6"/>
</radialGradient>
<radialGradient id="paint32_radial_32_2" cx="0" cy="0" r="1" gradientUnits="userSpaceOnUse" gradientTransform="translate(124.002 158.879) rotate(-90) scale(8.82828 8.82407)">
<stop stop-color="white"/>
<stop offset="0.76" stop-color="#D0D0D0"/>
<stop offset="1" stop-color="#A6A6A6"/>
</radialGradient>
<clipPath id="clip0_32_2">
<rect width="332" height="520" fill="white"/>
</clipPath>
</defs>
</svg>
