<svg width="305" height="49" viewBox="0 0 305 49" fill="none" xmlns="http://www.w3.org/2000/svg">
<path d="M42.8414 16.4346C43.8795 8.53849 42.5503 6.7814 39.159 4.28913C34.1836 0.594921 26.5837 0.0774942 24.0833 0.00958197C24.0778 0.00634805 24.0723 0.00419211 24.0679 0.000958197H23.623C23.3846 -0.00119775 23.2539 0.000958197 23.2539 0.000958197V7.64162C24.1383 7.64162 24.9567 7.62976 25.7762 7.64378C29.7014 7.70845 32.7884 11.1342 32.3995 14.9654C32.2885 16.0617 31.8469 17.0426 31.3965 18.0225C30.1661 20.6991 30.4353 23.1849 32.3468 25.4713C32.695 25.8874 33.0378 26.3089 33.3915 26.7206C34.5109 28.0239 35.4546 29.4188 35.8303 31.1198C36.0423 32.0803 36.0698 33.0537 36.0841 34.0508C37.6287 31.9197 39.5578 27.6046 39.8434 26.9255C41.1386 23.8511 42.3525 20.1493 42.8414 16.4346Z" fill="#25A46A"/>
<path d="M26.4527 17.3051C26.0951 15.686 25.1435 14.524 23.5895 13.7641V16.1786C24.8299 17.6759 24.831 19.3305 23.5981 20.5281C22.5016 21.5931 20.736 21.6384 19.59 20.6294C18.4806 19.6539 18.0188 17.8171 19.4891 16.1539V2.3735C19.4891 2.3735 19.4869 2.3735 19.4859 2.3735V0.000958167C19.4859 0.000958167 19.3581 -0.00119771 19.125 0.000958167H18.69C18.69 0.000958167 18.6793 0.00634785 18.675 0.00958167C16.2317 0.0774917 8.80095 0.594901 3.93694 4.28899C0.621604 6.78226 -0.677897 8.5393 0.337002 16.4352C0.814918 20.1487 2.00165 23.8503 3.26786 26.9257C3.54709 27.6048 5.43406 31.9198 6.94298 34.0508C6.95694 33.0548 6.98487 32.0804 7.19107 31.1199C7.55836 29.4189 8.4809 28.0241 9.57528 26.7209C9.66871 26.6098 9.76 26.4967 9.85236 26.3846C9.85666 26.391 9.86095 26.3964 9.86632 26.4029C10.1413 26.0623 10.413 25.7195 10.6772 25.3713C10.8329 25.1762 10.9768 24.9789 11.1089 24.7806C11.1153 24.772 11.1218 24.7633 11.1282 24.7536C12.3826 22.9524 12.6082 20.9798 11.8822 18.9101C11.6394 18.2181 11.3226 17.5519 11.0541 16.8674C9.53339 12.9912 11.6437 8.82172 15.6346 7.83002C15.785 7.79229 15.9364 7.7578 16.0889 7.72761C16.3939 7.67803 16.7043 7.64785 17.0222 7.64246C17.0845 7.64246 17.1468 7.64138 17.2101 7.6403C17.3594 7.65 17.5108 7.66941 17.6633 7.70174C17.6633 10.1379 17.6612 12.5438 17.6676 14.9487C17.6676 15.1729 17.5345 15.3109 17.4249 15.4704C16.1007 17.3956 16.2231 19.9148 17.7278 21.6621C19.241 23.4202 21.6982 23.9172 23.7839 22.8866C25.8427 21.8702 26.9585 19.5731 26.457 17.3029L26.4527 17.3051Z" fill="#25A46A"/>
<path d="M26.8711 42.3522H16.3172C16.3172 42.3522 14.2545 42.4793 12.458 41.5254C12.458 41.5254 16.1054 45.4344 17.9806 47.249C19.7283 48.9406 20.6854 49.0392 21.5936 48.9915C22.5018 49.0392 23.4589 48.9406 25.2066 47.249C27.0818 45.4344 30.7292 41.5254 30.7292 41.5254C28.9327 42.4793 26.87 42.3522 26.87 42.3522H26.8711Z" fill="#25A46A"/>
<path d="M25.2131 31.5593H17.9728C17.6788 31.5593 17.4404 31.8786 17.4404 32.2724V33.3378C17.4404 33.7316 17.6788 34.0509 17.9728 34.0509H25.2131C25.5072 34.0509 25.7455 33.7316 25.7455 33.3378V32.2724C25.7455 31.8786 25.5072 31.5593 25.2131 31.5593Z" fill="#25A46A"/>
<path d="M66.554 37V34.003L79.985 13.061H66.554V9.731H84.499V12.728L71.068 33.67H84.499V37H66.554ZM86.9578 37L96.0598 9.731H100.796L109.898 37H106.013L103.608 29.859H93.1738L90.8058 37H86.9578ZM94.0618 26.492H102.683L98.3908 12.987L94.0618 26.492ZM113.662 37V9.731H123.8C126.242 9.731 128.055 10.323 129.239 11.507C130.448 12.691 131.052 14.4423 131.052 16.761C131.052 17.8957 130.879 18.8823 130.534 19.721C130.213 20.535 129.757 21.2133 129.165 21.756C128.598 22.274 127.956 22.6317 127.241 22.829C127.759 22.977 128.289 23.199 128.832 23.495C129.399 23.791 129.917 24.2103 130.386 24.753C130.879 25.271 131.274 25.9247 131.57 26.714C131.866 27.4787 132.014 28.3913 132.014 29.452C132.014 31.3513 131.693 32.856 131.052 33.966C130.435 35.0513 129.547 35.8283 128.388 36.297C127.229 36.7657 125.835 37 124.207 37H113.662ZM117.399 33.67H124.096C124.984 33.67 125.749 33.522 126.39 33.226C127.031 32.93 127.537 32.4367 127.907 31.746C128.277 31.0553 128.462 30.081 128.462 28.823C128.462 27.9103 128.265 27.1333 127.87 26.492C127.475 25.826 126.945 25.3203 126.279 24.975C125.638 24.6297 124.91 24.457 124.096 24.457H117.399V33.67ZM117.399 21.571H123.911C124.972 21.571 125.823 21.1887 126.464 20.424C127.13 19.6347 127.475 18.611 127.5 17.353C127.549 15.7497 127.216 14.6397 126.501 14.023C125.786 13.3817 124.873 13.061 123.763 13.061H117.399V21.571ZM136.281 37V9.731H147.196C148.133 9.731 149.034 9.842 149.897 10.064C150.785 10.286 151.574 10.693 152.265 11.285C152.956 11.877 153.498 12.7157 153.893 13.801C154.288 14.8617 154.485 16.2553 154.485 17.982C154.485 19.388 154.337 20.5597 154.041 21.497C153.745 22.4343 153.35 23.1867 152.857 23.754C152.388 24.2967 151.858 24.716 151.266 25.012C150.699 25.2833 150.131 25.493 149.564 25.641L155.003 37H151.229L146.197 26.159C145.827 26.159 145.371 26.159 144.828 26.159C144.31 26.1343 143.755 26.122 143.163 26.122C142.596 26.122 142.028 26.1097 141.461 26.085C140.918 26.0603 140.437 26.048 140.018 26.048V37H136.281ZM140.018 23.162H146.604C147.196 23.162 147.739 23.1003 148.232 22.977C148.725 22.829 149.157 22.57 149.527 22.2C149.922 21.8053 150.23 21.275 150.452 20.609C150.674 19.9183 150.785 19.0427 150.785 17.982C150.785 16.946 150.674 16.1073 150.452 15.466C150.23 14.8247 149.922 14.3313 149.527 13.986C149.132 13.6407 148.688 13.4063 148.195 13.283C147.702 13.135 147.171 13.061 146.604 13.061H140.018V23.162ZM165.077 37.148C164.46 37.148 163.806 37.0987 163.116 37C162.425 36.8767 161.759 36.6423 161.118 36.297C160.501 35.927 159.995 35.372 159.601 34.632C159.206 33.892 159.009 32.893 159.009 31.635V15.429C159.009 14.3437 159.169 13.431 159.49 12.691C159.835 11.951 160.279 11.3713 160.822 10.952C161.364 10.508 161.969 10.1997 162.635 10.027C163.325 9.82967 164.004 9.731 164.67 9.731C166.273 9.75566 167.741 9.79266 169.073 9.842C170.429 9.86667 171.687 9.90367 172.847 9.953C174.006 10.0023 175.116 10.0517 176.177 10.101V13.172H165.669C164.756 13.172 164.041 13.4063 163.523 13.875C163.005 14.3437 162.746 15.0837 162.746 16.095V21.756L174.512 21.978V24.864L162.746 25.123V30.71C162.746 31.5487 162.881 32.1777 163.153 32.597C163.449 33.0163 163.819 33.3 164.263 33.448C164.731 33.596 165.225 33.67 165.743 33.67H176.177V36.741C175.042 36.815 173.846 36.889 172.588 36.963C171.33 37.0123 170.059 37.0493 168.777 37.074C167.519 37.1233 166.285 37.148 165.077 37.148ZM181.24 37V9.731H184.274L197.631 30.636V9.731H201.331V37H198.334L184.977 16.095V37H181.24ZM206.343 37V9.731H210.08V21.756H214.483L221.402 9.731H225.361L217.443 23.384L225.509 37H221.513L214.483 25.086H210.08V37H206.343ZM227.587 37L236.689 9.731H241.425L250.527 37H246.642L244.237 29.859H233.803L231.435 37H227.587ZM234.691 26.492H243.312L239.02 12.987L234.691 26.492ZM256.881 37.222C256.141 37.222 255.364 37.148 254.55 37C253.761 36.8273 253.107 36.63 252.589 36.408V33.485C253.107 33.5837 253.687 33.6823 254.328 33.781C254.969 33.855 255.561 33.892 256.104 33.892C256.844 33.892 257.473 33.781 257.991 33.559C258.509 33.337 258.904 32.9793 259.175 32.486C259.471 31.968 259.619 31.2403 259.619 30.303V9.731H263.319V30.784C263.319 32.3133 263.085 33.559 262.616 34.521C262.172 35.4583 261.469 36.149 260.507 36.593C259.57 37.0123 258.361 37.222 256.881 37.222ZM268.892 37.037C268.473 37.037 268.263 36.8273 268.263 36.408V33.189C268.263 32.745 268.473 32.523 268.892 32.523H271.001C271.445 32.523 271.667 32.745 271.667 33.189V36.408C271.667 36.63 271.605 36.7903 271.482 36.889C271.359 36.9877 271.198 37.037 271.001 37.037H268.892ZM284.394 37.222C283.802 37.222 283.123 37.1973 282.359 37.148C281.619 37.1233 280.854 37.074 280.065 37C279.3 36.926 278.56 36.852 277.845 36.778C277.154 36.704 276.562 36.6053 276.069 36.482V33.596C276.71 33.6453 277.475 33.6947 278.363 33.744C279.275 33.7933 280.237 33.8303 281.249 33.855C282.285 33.8797 283.284 33.892 284.246 33.892C285.306 33.892 286.244 33.7933 287.058 33.596C287.896 33.3987 288.55 33.0287 289.019 32.486C289.512 31.9433 289.759 31.1787 289.759 30.192V28.601C289.759 27.491 289.45 26.64 288.834 26.048C288.242 25.456 287.329 25.16 286.096 25.16H283.321C280.953 25.16 279.115 24.642 277.808 23.606C276.525 22.57 275.884 20.794 275.884 18.278V16.798C275.884 14.1833 276.587 12.321 277.993 11.211C279.423 10.0763 281.446 9.509 284.061 9.509C284.924 9.509 285.849 9.55833 286.836 9.657C287.822 9.731 288.784 9.82967 289.722 9.953C290.659 10.0763 291.436 10.1997 292.053 10.323V13.209C290.943 13.135 289.697 13.061 288.316 12.987C286.959 12.8883 285.676 12.839 284.468 12.839C283.432 12.839 282.531 12.9623 281.767 13.209C281.027 13.431 280.447 13.838 280.028 14.43C279.633 15.022 279.436 15.8607 279.436 16.946V18.056C279.436 19.388 279.793 20.313 280.509 20.831C281.224 21.349 282.223 21.608 283.506 21.608H286.503C288.057 21.608 289.327 21.8917 290.314 22.459C291.325 23.0263 292.077 23.8033 292.571 24.79C293.064 25.7767 293.311 26.899 293.311 28.157V30.081C293.311 32.005 292.916 33.485 292.127 34.521C291.337 35.557 290.277 36.2723 288.945 36.667C287.613 37.037 286.096 37.222 284.394 37.222ZM298.048 37V9.731H301.785V37H298.048Z" fill="black"/>
</svg>
