<svg width="132" height="123" viewBox="0 0 132 123" fill="none" xmlns="http://www.w3.org/2000/svg">
<path d="M63.7292 30.5702C63.7292 36.499 63.6273 42.4345 63.8176 48.3565C63.8516 49.5114 64.749 51.0423 65.728 51.6936C72.9616 56.4607 73.1587 65.8407 65.8368 70.299C64.076 71.3733 63.6884 72.5147 63.6952 74.3276C63.7496 85.9636 63.7564 97.5995 63.6749 109.235C63.6681 110.558 62.9746 111.874 62.6007 113.19C61.3294 112.693 59.8405 112.465 58.8207 111.653C47.6304 102.729 36.5489 93.6716 25.3246 84.7885C24.0465 83.7747 22.1361 83.1301 20.4841 83.0495C15.7387 82.8213 10.973 83.0092 6.21406 82.9488C2.50888 82.9018 1.05401 81.512 1.03361 77.8526C0.979224 66.6665 0.972426 55.4737 1.03361 44.2876C1.05401 40.6753 2.54288 39.3795 6.32283 39.3123C8.47795 39.2787 10.6739 39.0236 12.7746 39.3526C20.3413 40.5343 26.0452 37.627 31.5996 32.6987C40.356 24.9302 49.7176 17.8331 58.8751 10.5212C59.8405 9.75579 61.1934 9.46708 62.3695 8.95679C62.8182 10.2325 63.6273 11.4948 63.6613 12.7772C63.7972 18.706 63.7224 24.6348 63.7224 30.5635L63.7292 30.5702Z" fill="url(#paint0_linear_18_568)"/>
<path d="M77.0141 95.4174C75.668 95.4174 74.3967 94.6251 73.8596 93.3158C73.1594 91.597 73.9956 89.6431 75.736 88.9448C86.9467 84.4731 94.1939 73.8577 94.1939 61.9129V61.0736C94.1939 49.1288 86.9467 38.5201 75.736 34.0417C73.9956 33.3501 73.1526 31.3895 73.8596 29.6706C74.5667 27.9517 76.545 27.1192 78.2854 27.8175C92.0796 33.3232 100.992 46.3759 100.992 61.0736V61.9129C100.992 76.6106 92.0796 89.6632 78.2854 95.169C77.8707 95.3369 77.4356 95.4174 77.0141 95.4174Z" fill="url(#paint1_linear_18_568)"/>
<path d="M85.8383 105.335C84.4922 105.335 83.2209 104.542 82.6838 103.233C81.9836 101.514 82.8198 99.5603 84.5602 98.862C99.8296 92.7654 109.694 78.3228 109.694 62.054V60.9461C109.694 44.6773 99.8296 30.228 84.5602 24.1381C82.8198 23.4465 81.9768 21.4859 82.6838 19.7671C83.3841 18.0482 85.3692 17.2156 87.1097 17.9139C104.962 25.0378 116.5 41.9311 116.5 60.9461V62.054C116.5 81.069 104.962 97.9623 87.1097 105.086C86.6949 105.254 86.2598 105.335 85.8383 105.335Z" fill="url(#paint2_linear_18_568)"/>
<path d="M89.4418 123C88.0957 123 86.8244 122.208 86.2874 120.898C85.5871 119.179 86.4233 117.226 88.1637 116.527C110.66 107.55 125.195 86.2591 125.195 62.2956V60.7043C125.195 36.7408 110.66 15.4496 88.1637 6.47256C86.4233 5.78098 85.5803 3.8204 86.2874 2.10153C86.9944 0.382654 88.9728 -0.449924 90.7132 0.248367C115.793 10.2594 132 33.9879 132 60.7043V62.2956C132 89.0119 115.793 112.747 90.7132 122.752C90.2985 122.919 89.8634 123 89.4418 123Z" fill="url(#paint3_linear_18_568)"/>
<defs>
<linearGradient id="paint0_linear_18_568" x1="36.1158" y1="8.95679" x2="36.1158" y2="113.19" gradientUnits="userSpaceOnUse">
<stop stop-color="#FF0000"/>
<stop offset="1" stop-color="#030000"/>
</linearGradient>
<linearGradient id="paint1_linear_18_568" x1="87.3009" y1="27.5703" x2="87.3009" y2="95.4174" gradientUnits="userSpaceOnUse">
<stop stop-color="#FF0000"/>
<stop offset="1" stop-color="#030000"/>
</linearGradient>
<linearGradient id="paint2_linear_18_568" x1="99.4665" y1="17.6667" x2="99.4665" y2="105.335" gradientUnits="userSpaceOnUse">
<stop stop-color="#FF0000"/>
<stop offset="1" stop-color="#030000"/>
</linearGradient>
<linearGradient id="paint3_linear_18_568" x1="109.019" y1="0.0012207" x2="109.019" y2="123" gradientUnits="userSpaceOnUse">
<stop stop-color="#FF0000"/>
<stop offset="1" stop-color="#030000"/>
</linearGradient>
</defs>
</svg>
