<svg width="142" height="106" viewBox="0 0 142 106" fill="none" xmlns="http://www.w3.org/2000/svg">
<path d="M63.7292 22.5705C63.7292 28.4993 63.6273 34.4347 63.8176 40.3568C63.8516 41.5116 64.749 43.0425 65.728 43.6938C72.9616 48.461 73.1587 57.8409 65.8368 62.2992C64.076 63.3735 63.6884 64.515 63.6952 66.3279C63.7496 77.9638 63.7564 89.5998 63.6749 101.236C63.6681 102.558 62.9746 103.874 62.6007 105.19C61.3294 104.694 59.8405 104.465 58.8207 103.653C47.6304 94.7295 36.5489 85.6719 25.3246 76.7888C24.0465 75.7749 22.1361 75.1304 20.4841 75.0498C15.7387 74.8215 10.973 75.0095 6.21406 74.9491C2.50888 74.9021 1.05401 73.5122 1.03361 69.8529C0.979224 58.6668 0.972426 47.474 1.03361 36.2879C1.05401 32.6756 2.54288 31.3797 6.32283 31.3126C8.47795 31.279 10.6739 31.0238 12.7746 31.3528C20.3413 32.5346 26.0452 29.6273 31.5996 24.6989C40.356 16.9304 49.7176 9.83339 58.8751 2.52147C59.8405 1.75604 61.1934 1.46732 62.3695 0.957031C62.8182 2.23276 63.6273 3.49505 63.6613 4.77749C63.7972 10.7063 63.7224 16.635 63.7224 22.5638L63.7292 22.5705Z" fill="url(#paint0_linear_18_561)"/>
<path d="M73.377 81.5009C72.1297 81.5009 71.0816 80.5299 71.0105 79.27C70.9346 77.9532 71.2713 76.8969 72.0111 76.1248C73.1873 74.898 74.8282 74.9264 76.2699 74.9454C76.7442 74.9548 77.2374 74.9596 77.7401 74.9359C77.963 74.9264 78.1195 74.9075 78.2333 74.8885C78.3187 74.5522 78.4135 73.9743 78.4941 73.4865C78.5416 73.1975 78.5937 72.8849 78.6506 72.5533C79.4142 68.1577 82.3735 67.6698 84.5313 67.3145C84.7637 67.2766 85.0056 67.2388 85.2522 67.1914C85.4277 66.7177 85.3091 65.3583 84.6973 64.5767C84.0761 63.7857 83.82 62.8336 83.9765 61.9005C84.28 60.0958 85.9067 59.0585 87.3389 58.1396C87.4859 58.0448 87.6614 57.9359 87.8369 57.8175C86.8647 57.0501 85.5794 55.9133 84.9677 53.8907C83.5165 49.0877 84.8064 45.9284 86.1485 44.1237C86.3714 43.8253 86.3477 43.6879 86.3382 43.6216C86.2671 43.1953 85.6648 42.3427 84.1994 41.3385C82.8193 40.3959 78.6269 37.5207 79.3573 32.6277C79.4474 32.0167 79.6466 31.4814 79.879 31.0172C77.9061 30.662 77.0714 30.752 76.6209 30.7994C74.4867 31.0267 73.7659 29.8994 73.1588 28.6252C73.0687 28.4357 72.9596 28.2036 72.8174 27.9242C72.234 26.7542 72.7083 25.3332 73.8797 24.7459C75.0511 24.1585 76.4738 24.6369 77.0619 25.8069C77.0998 25.8827 77.133 25.949 77.1662 26.02C77.9582 26.0011 79.1154 26.0627 80.8037 26.3705C83.028 26.7779 84.9155 27.2516 85.5557 28.9852C86.1438 30.5767 85.1526 31.7941 84.6215 32.4525C84.3938 32.7367 84.0761 33.1203 84.0476 33.3288C83.9101 34.2429 84.1093 35.5408 86.8836 37.4402C89.3023 39.098 90.6966 40.9169 91.0191 42.8495C91.2562 44.28 90.891 45.701 89.9615 46.9515C88.9371 48.3251 88.7901 50.1488 89.511 52.5266C89.7386 53.2702 90.2366 53.6871 91.0333 54.3028C91.9391 55.0039 93.6227 56.3017 93.1674 58.5611C92.826 60.2569 91.2704 61.2516 89.8999 62.1326C89.6675 62.2794 89.3592 62.4784 89.0841 62.6678C90.1133 64.5767 90.3741 67.0256 89.677 68.8871C89.0889 70.455 87.8369 71.5302 86.2529 71.8286C85.9256 71.8902 85.6079 71.9423 85.3044 71.9944C84.1093 72.1902 83.4501 72.6496 83.3268 73.3728C83.2698 73.6901 83.2224 73.9838 83.1797 74.2538C82.7814 76.6932 82.3356 79.4594 77.982 79.6773C77.318 79.7105 76.7252 79.701 76.1988 79.6915C76.0423 79.6915 75.8621 79.6868 75.6866 79.6868C75.4542 80.6815 74.5863 81.4488 73.5145 81.5104C73.4671 81.5104 73.4244 81.5104 73.377 81.5104V81.5009Z" fill="url(#paint1_linear_18_561)"/>
<path d="M90.8813 91.3439C89.634 91.3439 88.5907 90.3729 88.5148 89.1129C88.4247 87.5593 88.8088 86.3277 89.6483 85.4515C90.9999 84.0447 92.8684 84.0731 94.8555 84.1062C95.5242 84.1157 96.2119 84.1252 96.9422 84.092C97.9998 84.0399 98.2607 83.8789 98.2701 83.8694C98.4456 83.6278 98.6495 82.3631 98.8155 81.3447C98.8819 80.9516 98.9483 80.5253 99.0289 80.0706C99.9727 74.647 103.53 74.0597 106.389 73.586C106.769 73.5245 107.162 73.4581 107.57 73.3824C107.722 73.3539 107.893 73.3208 108.054 72.885C108.495 71.7103 108.068 69.5219 107.172 68.3851C106.275 67.2436 106.233 66.1352 106.361 65.401C106.717 63.3074 108.685 62.0474 110.591 60.8254C111.089 60.508 111.819 60.0391 112.289 59.6649C112.113 59.5228 111.914 59.3665 111.744 59.2338C110.473 58.2486 108.547 56.766 107.703 53.9666C106.181 48.9457 106.683 44.6875 109.192 41.3102C109.662 40.6755 109.666 40.2444 109.614 39.9413C109.439 38.8992 108.229 37.5398 106.294 36.2135C101.443 32.8883 99.3846 29.2458 100.006 25.087C100.186 23.8602 100.722 22.8797 101.263 22.1124C100.94 22.0413 100.556 21.9655 100.101 21.8803C97.1936 21.3498 95.9368 21.4824 95.2634 21.5582C92.8969 21.8139 92.1713 20.6866 91.3983 19.0667C91.2702 18.8014 91.1184 18.4793 90.924 18.0862C90.3359 16.9162 90.8149 15.4952 91.9863 14.9078C93.1577 14.3252 94.5805 14.7989 95.1685 15.9689C95.3203 16.2767 95.4531 16.542 95.5622 16.7741C96.5913 16.7078 98.2275 16.722 100.959 17.2194C104.26 17.8209 106.171 18.4841 106.826 20.2508C107.461 21.9655 106.347 23.3344 105.683 24.1491C105.242 24.6939 104.782 25.2575 104.701 25.788C104.473 27.3038 104.758 29.4163 108.983 32.3152C112.109 34.4562 113.897 36.763 114.3 39.1692C114.589 40.8981 114.143 42.6128 113.01 44.138C111.421 46.2742 111.174 49.0405 112.251 52.6025C112.659 53.9524 113.631 54.7056 114.655 55.4966C115.898 56.4581 117.781 57.9123 117.264 60.4796C116.87 62.4453 114.983 63.6532 113.157 64.8231C112.621 65.1642 111.824 65.6757 111.34 66.0736C112.939 68.532 113.441 72.0466 112.498 74.5571C111.786 76.447 110.349 77.6833 108.452 78.0433C108.006 78.1285 107.575 78.1996 107.162 78.2659C104.483 78.7064 104.07 78.7775 103.705 80.8853C103.629 81.3211 103.563 81.7284 103.501 82.1073C102.96 85.4278 102.453 88.5587 97.1841 88.824C96.302 88.8666 95.4958 88.8571 94.7891 88.8429C94.3007 88.8335 93.6841 88.824 93.2573 88.8524C93.3284 90.155 92.3278 91.2681 91.0236 91.3439C90.9762 91.3439 90.9335 91.3439 90.8861 91.3439H90.8813Z" fill="url(#paint2_linear_18_561)"/>
<path d="M107.073 103.995C105.825 103.995 104.782 103.024 104.706 101.764C104.597 99.8793 105.024 98.463 106.006 97.4399C107.58 95.801 109.937 95.8389 112.427 95.8768C113.342 95.891 114.291 95.9052 115.301 95.8531C117.046 95.7646 118.151 94.2947 118.616 91.4432C118.701 90.9127 118.796 90.3396 118.9 89.7285C120.077 82.9787 124.373 82.2682 128.162 81.643C128.679 81.5577 129.215 81.4677 129.775 81.3635C130.216 81.2783 130.714 81.0698 131.055 80.1651C131.762 78.2847 131.146 75.0685 129.742 73.278C128.717 71.9754 128.67 70.7202 128.807 69.896C129.225 67.4329 131.734 65.8272 134.157 64.2735C135.158 63.6341 136.789 62.5873 137.211 62.0046C136.979 61.6968 136.263 61.1426 135.774 60.7636C134.038 59.4231 131.667 57.59 130.6 54.0612C128.627 47.5388 129.258 42.03 132.483 37.6912C133.318 36.5686 133.294 35.7397 133.204 35.2092C132.929 33.5513 131.207 31.5666 128.366 29.6199C122.097 25.3237 119.432 20.6675 120.219 15.3861C120.522 13.3351 121.665 11.8004 122.524 10.7394C121.912 10.5641 121.006 10.351 119.673 10.1094C115.623 9.37048 113.845 9.55995 112.896 9.66416C110.179 9.95783 109.458 8.75471 108.514 6.77004C108.344 6.41005 108.13 5.96954 107.865 5.42955C107.277 4.25959 107.756 2.83858 108.927 2.25123C110.098 1.66388 111.521 2.14229 112.109 3.31225C112.394 3.88065 112.617 4.34959 112.802 4.73326C112.83 4.7901 112.854 4.84694 112.882 4.90378C114.167 4.78536 116.387 4.69537 120.532 5.4485C124.691 6.20637 127.086 7.00214 127.831 9.01523C128.523 10.8862 127.309 12.3783 126.417 13.4725C125.749 14.2966 125.056 15.1493 124.914 16.0871C124.601 18.1997 124.895 21.4917 131.055 25.7168C135.087 28.4783 137.382 31.4103 137.889 34.4323C138.24 36.5354 137.69 38.6433 136.296 40.519C134.015 43.5884 133.626 47.6856 135.143 52.697C135.774 54.7765 137.254 55.9227 138.681 57.0264C140.289 58.2721 142.494 59.9726 141.902 62.9425C141.437 65.2493 139.146 66.7177 136.718 68.2713C135.732 68.9013 134.152 69.9149 133.616 70.5496C135.95 73.6664 136.761 78.4694 135.494 81.8372C134.641 84.1108 132.924 85.5981 130.652 86.0244C130.055 86.1381 129.481 86.2328 128.931 86.3228C125.274 86.9244 124.169 87.1091 123.567 90.5432C123.463 91.1353 123.373 91.6895 123.292 92.2058C122.562 96.7104 121.983 100.263 115.533 100.585C114.371 100.642 113.295 100.628 112.351 100.613C111.331 100.599 109.97 100.576 109.463 100.737C109.439 100.86 109.411 101.097 109.434 101.499C109.51 102.807 108.51 103.924 107.201 104C107.153 104 107.111 104 107.063 104L107.073 103.995Z" fill="url(#paint3_linear_18_561)"/>
<defs>
<linearGradient id="paint0_linear_18_561" x1="36.1158" y1="0.957031" x2="36.1158" y2="105.19" gradientUnits="userSpaceOnUse">
<stop stop-color="#A58925"/>
<stop offset="1"/>
</linearGradient>
<linearGradient id="paint1_linear_18_561" x1="82.122" y1="24.4946" x2="82.122" y2="81.5104" gradientUnits="userSpaceOnUse">
<stop stop-color="#A58925"/>
<stop offset="1"/>
</linearGradient>
<linearGradient id="paint2_linear_18_561" x1="102.927" y1="14.6587" x2="102.927" y2="91.3439" gradientUnits="userSpaceOnUse">
<stop stop-color="#A58925"/>
<stop offset="1"/>
</linearGradient>
<linearGradient id="paint3_linear_18_561" x1="123.345" y1="2" x2="123.345" y2="104" gradientUnits="userSpaceOnUse">
<stop stop-color="#A58925"/>
<stop offset="1"/>
</linearGradient>
</defs>
</svg>
