<svg width="54" height="63" viewBox="0 0 54 63" fill="none" xmlns="http://www.w3.org/2000/svg">
<path d="M49.1602 5.35704C43.0502 0.737042 33.7502 0.127042 30.6702 0.00704204C29.1902 0.017042 25.0102 -0.012958 23.5402 0.00704204C-5.54983 1.13704 -4.15983 19.277 8.83017 42.487C11.2002 46.857 17.1202 54.067 22.7902 59.677C26.3802 62.867 27.9702 62.847 31.5602 59.677C39.2402 52.067 46.2202 43.127 50.0002 33.597C53.5202 26.007 57.2302 8.64704 49.1602 5.36704V5.35704Z" fill="#25A46A"/>
<path d="M49.1602 5.35704C43.0502 0.737042 33.7502 0.127042 30.6702 0.00704204C29.1902 0.017042 25.0102 -0.012958 23.5402 0.00704204C-5.54983 1.13704 -4.15983 19.277 8.83017 42.487C11.2002 46.857 17.1202 54.067 22.7902 59.677C26.3802 62.867 27.9702 62.847 31.5602 59.677C39.2402 52.067 46.2202 43.127 50.0002 33.597C53.5202 26.007 57.2302 8.64704 49.1602 5.36704V5.35704Z" fill="url(#paint0_linear_43_247)"/>
<defs>
<linearGradient id="paint0_linear_43_247" x1="26.9952" y1="0" x2="26.9952" y2="62.062" gradientUnits="userSpaceOnUse">
<stop stop-color="#33B478"/>
<stop offset="1" stop-color="#222222"/>
</linearGradient>
</defs>
</svg>
