<svg width="54" height="51" viewBox="0 0 54 51" fill="none" xmlns="http://www.w3.org/2000/svg">
<g clip-path="url(#clip0_18_514)">
<path d="M25.858 12.6755C25.858 15.1338 25.8159 17.5948 25.8944 20.0503C25.9084 20.5292 26.2783 21.1639 26.6819 21.434C29.6637 23.4106 29.7449 27.2998 26.7267 29.1484C26.0009 29.5939 25.8412 30.0671 25.844 30.8188C25.8664 35.6435 25.8692 40.4681 25.8356 45.2928C25.8328 45.8412 25.5469 46.3869 25.3928 46.9326C24.8687 46.7266 24.255 46.6319 23.8346 46.295C19.2218 42.5951 14.6539 38.8395 10.0271 35.1563C9.5002 34.7359 8.71271 34.4686 8.03172 34.4352C6.07563 34.3406 4.11113 34.4185 2.14943 34.3935C0.622102 34.374 0.0223819 33.7977 0.0139747 32.2804C-0.00844477 27.6423 -0.0112472 23.0014 0.0139747 18.3632C0.0223819 16.8654 0.636114 16.3281 2.19426 16.3003C3.08263 16.2864 3.98782 16.1806 4.85377 16.317C7.97287 16.807 10.3241 15.6015 12.6137 13.558C16.2232 10.337 20.0822 7.39428 23.857 4.36251C24.255 4.04513 24.8127 3.92542 25.2975 3.71384C25.4824 4.2428 25.8159 4.76619 25.8299 5.29793C25.886 7.7562 25.8552 10.2145 25.8552 12.6727L25.858 12.6755Z" fill="#25A56A"/>
<path d="M25.858 12.6755C25.858 15.1338 25.8159 17.5948 25.8944 20.0503C25.9084 20.5292 26.2783 21.1639 26.6819 21.434C29.6637 23.4106 29.7449 27.2998 26.7267 29.1484C26.0009 29.5939 25.8412 30.0671 25.844 30.8188C25.8664 35.6435 25.8692 40.4681 25.8356 45.2928C25.8328 45.8412 25.5469 46.3869 25.3928 46.9326C24.8687 46.7266 24.255 46.6319 23.8346 46.295C19.2218 42.5951 14.6539 38.8395 10.0271 35.1563C9.5002 34.7359 8.71271 34.4686 8.03172 34.4352C6.07563 34.3406 4.11113 34.4185 2.14943 34.3935C0.622102 34.374 0.0223819 33.7977 0.0139747 32.2804C-0.00844477 27.6423 -0.0112472 23.0014 0.0139747 18.3632C0.0223819 16.8654 0.636114 16.3281 2.19426 16.3003C3.08263 16.2864 3.98782 16.1806 4.85377 16.317C7.97287 16.807 10.3241 15.6015 12.6137 13.558C16.2232 10.337 20.0822 7.39428 23.857 4.36251C24.255 4.04513 24.8127 3.92542 25.2975 3.71384C25.4824 4.2428 25.8159 4.76619 25.8299 5.29793C25.886 7.7562 25.8552 10.2145 25.8552 12.6727L25.858 12.6755Z" fill="url(#paint0_linear_18_514)"/>
<path d="M31.3341 39.5633C30.7793 39.5633 30.2552 39.2348 30.0338 38.692C29.7452 37.9792 30.0899 37.1691 30.8073 36.8796C35.4285 35.0254 38.4159 30.6239 38.4159 25.6712V25.3232C38.4159 20.3705 35.4285 15.9718 30.8073 14.1148C30.0899 13.8281 29.7424 13.0152 30.0338 12.3025C30.3253 11.5898 31.1408 11.2446 31.8582 11.5341C37.5443 13.817 41.2183 19.229 41.2183 25.3232V25.6712C41.2183 31.7654 37.5443 37.1775 31.8582 39.4603C31.6873 39.5299 31.5079 39.5633 31.3341 39.5633Z" fill="#25A56A"/>
<path d="M31.3341 39.5633C30.7793 39.5633 30.2552 39.2348 30.0338 38.692C29.7452 37.9792 30.0899 37.1691 30.8073 36.8796C35.4285 35.0254 38.4159 30.6239 38.4159 25.6712V25.3232C38.4159 20.3705 35.4285 15.9718 30.8073 14.1148C30.0899 13.8281 29.7424 13.0152 30.0338 12.3025C30.3253 11.5898 31.1408 11.2446 31.8582 11.5341C37.5443 13.817 41.2183 19.229 41.2183 25.3232V25.6712C41.2183 31.7654 37.5443 37.1775 31.8582 39.4603C31.6873 39.5299 31.5079 39.5633 31.3341 39.5633Z" fill="url(#paint1_linear_18_514)"/>
<path d="M34.9718 43.6753C34.417 43.6753 33.8929 43.3468 33.6715 42.8039C33.3829 42.0912 33.7276 41.2811 34.445 40.9915C40.7392 38.4637 44.8056 32.4753 44.8056 25.7297V25.2703C44.8056 18.5247 40.7392 12.5335 34.445 10.0085C33.7276 9.72171 33.3801 8.90879 33.6715 8.19608C33.9602 7.48338 34.7785 7.13817 35.4959 7.4277C42.8551 10.3815 47.6108 17.386 47.6108 25.2703V25.7297C47.6108 33.614 42.8551 40.6185 35.4959 43.5723C35.3249 43.6419 35.1456 43.6753 34.9718 43.6753Z" fill="#25A56A"/>
<path d="M34.9718 43.6753C34.417 43.6753 33.8929 43.3468 33.6715 42.8039C33.3829 42.0912 33.7276 41.2811 34.445 40.9915C40.7392 38.4637 44.8056 32.4753 44.8056 25.7297V25.2703C44.8056 18.5247 40.7392 12.5335 34.445 10.0085C33.7276 9.72171 33.3801 8.90879 33.6715 8.19608C33.9602 7.48338 34.7785 7.13817 35.4959 7.4277C42.8551 10.3815 47.6108 17.386 47.6108 25.2703V25.7297C47.6108 33.614 42.8551 40.6185 35.4959 43.5723C35.3249 43.6419 35.1456 43.6753 34.9718 43.6753Z" fill="url(#paint2_linear_18_514)"/>
<path d="M36.4572 51C35.9023 51 35.3783 50.6715 35.1569 50.1286C34.8682 49.4159 35.2129 48.6058 35.9303 48.3162C45.2036 44.594 51.1952 35.766 51.1952 25.8299V25.1701C51.1952 15.234 45.2036 6.40596 35.9303 2.68376C35.2129 2.39701 34.8654 1.58408 35.1569 0.871377C35.4483 0.158674 36.2638 -0.186541 36.9812 0.102994C47.3194 4.25393 54.0004 14.0926 54.0004 25.1701V25.8299C54.0004 36.9074 47.3194 46.7488 36.9812 50.897C36.8103 50.9666 36.6309 51 36.4572 51Z" fill="#25A56A"/>
<path d="M36.4572 51C35.9023 51 35.3783 50.6715 35.1569 50.1286C34.8682 49.4159 35.2129 48.6058 35.9303 48.3162C45.2036 44.594 51.1952 35.766 51.1952 25.8299V25.1701C51.1952 15.234 45.2036 6.40596 35.9303 2.68376C35.2129 2.39701 34.8654 1.58408 35.1569 0.871377C35.4483 0.158674 36.2638 -0.186541 36.9812 0.102994C47.3194 4.25393 54.0004 14.0926 54.0004 25.1701V25.8299C54.0004 36.9074 47.3194 46.7488 36.9812 50.897C36.8103 50.9666 36.6309 51 36.4572 51Z" fill="url(#paint3_linear_18_514)"/>
</g>
<defs>
<linearGradient id="paint0_linear_18_514" x1="14.4753" y1="3.71384" x2="14.4753" y2="46.9326" gradientUnits="userSpaceOnUse">
<stop stop-color="#33B478"/>
<stop offset="1" stop-color="#222222"/>
</linearGradient>
<linearGradient id="paint1_linear_18_514" x1="35.5745" y1="11.4316" x2="35.5745" y2="39.5633" gradientUnits="userSpaceOnUse">
<stop stop-color="#33B478"/>
<stop offset="1" stop-color="#222222"/>
</linearGradient>
<linearGradient id="paint2_linear_18_514" x1="40.5896" y1="7.32523" x2="40.5896" y2="43.6753" gradientUnits="userSpaceOnUse">
<stop stop-color="#33B478"/>
<stop offset="1" stop-color="#222222"/>
</linearGradient>
<linearGradient id="paint3_linear_18_514" x1="44.5271" y1="0.000518799" x2="44.5271" y2="51" gradientUnits="userSpaceOnUse">
<stop stop-color="#33B478"/>
<stop offset="1" stop-color="#222222"/>
</linearGradient>
<clipPath id="clip0_18_514">
<rect width="54" height="51" fill="white"/>
</clipPath>
</defs>
</svg>
